<svg xmlns="http://www.w3.org/2000/svg" viewBox="0 0 70.44 55.26"><defs><style>.cls-1{fill:#ed174e;}.cls-2{fill:#fff;}</style></defs><title>Asset 34</title><g id="Layer_2" data-name="Layer 2"><g id="Capa_1" data-name="Capa 1"><path class="cls-1" d="M70.44,7.67V47.59a7.68,7.68,0,0,1-7.67,7.67H7.67A7.68,7.68,0,0,1,0,47.59V7.67A7.68,7.68,0,0,1,7.67,0h55.1A7.69,7.69,0,0,1,70.44,7.67Z"/><path class="cls-2" d="M30.47,29.44a.79.79,0,0,0-.79-.79H26.91a.79.79,0,0,0-.8.79v2.77a.8.8,0,0,0,.8.8h2.77a.79.79,0,0,0,.79-.8V29.44Z"/><path class="cls-2" d="M37.4,29.44a.79.79,0,0,0-.79-.79H33.83a.79.79,0,0,0-.79.79v2.77a.8.8,0,0,0,.79.8h2.78a.8.8,0,0,0,.79-.8Z"/><path class="cls-2" d="M44.33,29.44a.79.79,0,0,0-.8-.79H40.76a.79.79,0,0,0-.79.79v2.77a.79.79,0,0,0,.79.8h2.77a.8.8,0,0,0,.8-.8Z"/><path class="cls-2" d="M30.47,36.37a.79.79,0,0,0-.79-.8H26.91a.8.8,0,0,0-.8.8v2.77a.79.79,0,0,0,.8.79h2.77a.79.79,0,0,0,.79-.79V36.37Z"/><path class="cls-2" d="M37.4,36.37a.8.8,0,0,0-.79-.8H33.83a.8.8,0,0,0-.79.8v2.77a.79.79,0,0,0,.79.79h2.78a.79.79,0,0,0,.79-.79Z"/><path class="cls-2" d="M44.33,36.37a.8.8,0,0,0-.79-.8H40.76a.79.79,0,0,0-.79.8v2.77a.79.79,0,0,0,.79.79h2.78a.79.79,0,0,0,.79-.79V36.37Z"/><path class="cls-2" d="M49.29,14v4.23a3.47,3.47,0,0,1-3.47,3.46H43.63a3.48,3.48,0,0,1-3.48-3.46V14H30.29v4.25a3.48,3.48,0,0,1-3.48,3.46H24.62a3.47,3.47,0,0,1-3.47-3.46V14a3.14,3.14,0,0,0-3,3.13V42a3.15,3.15,0,0,0,3.14,3.16H49.19A3.16,3.16,0,0,0,52.33,42V17.16A3.14,3.14,0,0,0,49.29,14Zm-1,26.4a1.36,1.36,0,0,1-1.36,1.36H23.47a1.36,1.36,0,0,1-1.36-1.36V27.61a1.35,1.35,0,0,1,1.36-1.35H46.91a1.35,1.35,0,0,1,1.36,1.35V40.43Z"/><path class="cls-2" d="M24.61,19.45h2.16A1.19,1.19,0,0,0,28,18.26V11.32a1.19,1.19,0,0,0-1.19-1.19H24.61a1.19,1.19,0,0,0-1.19,1.19v6.94A1.19,1.19,0,0,0,24.61,19.45Z"/><path class="cls-2" d="M43.61,19.45h2.16A1.19,1.19,0,0,0,47,18.26V11.32a1.19,1.19,0,0,0-1.19-1.19H43.61a1.19,1.19,0,0,0-1.19,1.19v6.94A1.19,1.19,0,0,0,43.61,19.45Z"/></g></g></svg>