<?xml version="1.0" encoding="utf-8"?>
<!-- Generator: Adobe Illustrator 16.0.0, SVG Export Plug-In . SVG Version: 6.00 Build 0)  -->
<!DOCTYPE svg PUBLIC "-//W3C//DTD SVG 1.1//EN" "http://www.w3.org/Graphics/SVG/1.1/DTD/svg11.dtd">
<svg version="1.1" id="Layer_1" xmlns="http://www.w3.org/2000/svg" xmlns:xlink="http://www.w3.org/1999/xlink" x="0px" y="0px"
	 width="18px" height="18px" viewBox="0 0 18 18" enable-background="new 0 0 18 18" xml:space="preserve">
<path fill="none" d="M0,0h18v18H0V0z"/>
<path fill="#008ACB" d="M9,3.375C5.25,3.375,2.047,5.708,0.75,9c1.297,3.293,4.5,5.625,8.25,5.625S15.953,12.293,17.25,9
	C15.953,5.708,12.75,3.375,9,3.375z M9,12.75c-2.07,0-3.75-1.68-3.75-3.75c0-2.07,1.68-3.75,3.75-3.75c2.07,0,3.75,1.68,3.75,3.75
	C12.75,11.07,11.07,12.75,9,12.75z M9,6.75C7.755,6.75,6.75,7.755,6.75,9S7.755,11.25,9,11.25s2.25-1.005,2.25-2.25
	S10.245,6.75,9,6.75z"/>
</svg>
